<svg id="Layer_1" viewBox="0 0 512 512" xmlns="http://www.w3.org/2000/svg" xmlns:xlink="http://www.w3.org/1999/xlink" data-name="Layer 1"><linearGradient id="GradientFill_1" gradientUnits="userSpaceOnUse" x1="69.772" x2="444.106" y1="531.07" y2="156.736" data-name="GradientFill 1"><stop offset="0" stop-color="#002142"/><stop offset=".112" stop-color="#022a4c"/><stop offset=".303" stop-color="#0a4367"/><stop offset=".549" stop-color="#166b92"/><stop offset=".838" stop-color="#27a3cf"/><stop offset="1" stop-color="#32c5f4"/></linearGradient><path d="m230.617 125.114c-2.39-3.039-1.863-7.44 1.176-9.829 3.039-2.391 7.44-1.863 9.829 1.175l7.854 9.988 23.204-24.438c2.662-2.806 7.093-2.919 9.896-.257s2.918 7.093.256 9.896l-28.778 30.309c-1.325 1.396-3.162 2.181-5.076 2.181-.109 0-.217-.003-.326-.008-2.031-.095-3.92-1.067-5.177-2.665zm-79.639-6.86c-4.873-7.799-3.083-17.948 4.163-23.608l19.843-15.503c.885-.691 1.31-1.427 1.466-2.539l3.504-24.936c1.279-9.105 9.194-15.722 18.364-15.408l25.165.879c1.122.036 1.919-.251 2.753-1.002l18.715-16.852c6.831-6.152 17.138-6.152 23.971 0l18.713 16.85c.835.753 1.64 1.04 2.755 1.004l25.166-.879c9.171-.332 17.083 6.303 18.363 15.407l3.504 24.937c.156 1.112.581 1.848 1.465 2.538l19.844 15.505c7.245 5.659 9.035 15.809 4.163 23.606l-13.345 21.355c-.594.951-.742 1.788-.509 2.887l5.236 24.632c1.912 8.993-3.24 17.917-11.985 20.759l-23.949 7.782c-1.068.347-1.719.893-2.246 1.885l-11.821 22.233c-3.2 6.02-9.352 9.514-15.793 9.514-2.247 0-4.528-.425-6.732-1.315l-23.348-9.434c-1.041-.42-1.891-.42-2.932 0l-23.348 9.434c-8.525 3.447-18.209-.08-22.525-8.198l-11.822-22.234c-.527-.991-1.177-1.537-2.244-1.883l-23.951-7.783c-8.745-2.841-13.897-11.766-11.986-20.759l5.236-24.632c.233-1.099.086-1.936-.509-2.888zm105.96 49.874c25.443 0 46.143-20.7 46.143-46.144s-20.7-46.143-46.143-46.143-46.144 20.699-46.144 46.143 20.7 46.144 46.144 46.144zm247 300.208c0 3.866-3.134 7-7 7h-118.843c.636 5.037.965 10.167.965 15.374 0 3.866-3.134 7-7 7h-93.051c-.01 0-.02.002-.03.002-.008 0-.016-.002-.023-.002h-44.034c-.008 0-.016.002-.024.002-.01 0-.02-.002-.03-.002h-93.052c-3.866 0-7-3.134-7-7 0-5.207.33-10.337.965-15.374h-118.843c-3.866 0-7-3.134-7-7 0-44.683 29.196-82.67 69.512-95.901-16.841-10.513-28.075-29.203-28.075-50.475 0-32.793 26.679-59.472 59.471-59.472s59.471 26.679 59.471 59.472c0 21.286-11.248 39.985-28.105 50.495 14.263 4.676 27.428 12.504 38.403 22.997.942-.756 1.893-1.501 2.857-2.23.197-.189.404-.371.627-.539.247-.186.504-.346.766-.494 6.513-4.777 13.513-8.924 20.914-12.353.416-.245.854-.448 1.309-.601 4.914-2.206 10-4.092 15.231-5.641-21.872-12.197-36.704-35.558-36.704-62.328 0-39.329 31.996-71.325 71.325-71.325s71.325 31.996 71.325 71.325c0 26.771-14.833 50.132-36.705 62.329 5.228 1.548 10.313 3.433 15.225 5.638.457.154.896.357 1.315.604 7.399 3.428 14.398 7.575 20.91 12.351.262.149.52.309.767.495.224.168.43.35.628.539.946.715 1.879 1.445 2.803 2.186 10.979-10.492 24.146-18.319 38.413-22.994-16.867-10.513-28.122-29.222-28.122-50.518 0-32.805 26.689-59.494 59.494-59.494s59.494 26.689 59.494 59.494c0 21.284-11.242 39.983-28.092 50.499 40.334 13.235 69.545 51.238 69.545 95.941zm-234.918-52.436 21.409 17.381 25.143-33.376c-3.42-2.216-6.973-4.241-10.643-6.067zm-43.87-28.538 31.789 19.53 31.789-19.53c-10.04-3.094-20.695-4.768-31.735-4.774-.018 0-.034.001-.052.001s-.035-.001-.052-.001c-11.041.005-21.698 1.68-31.738 4.774zm-26.844 12.543 25.143 33.376 21.408-17.381-35.908-22.062c-3.67 1.825-7.223 3.851-10.643 6.067zm-28.118 4.941c-16.012-14.944-37.261-23.404-59.291-23.417-.017 0-.034.001-.051.001-.013 0-.026 0-.04 0-45.545.02-83.012 35.261-86.589 79.906h114.179c5.374-21.682 16.553-41.096 31.791-56.49zm99.691 78.864-10.475-39.385c-.642-2.412.05-4.983 1.815-6.748l5.507-5.507-9.788-7.946-9.787 7.946 5.506 5.506c1.765 1.766 2.457 4.337 1.815 6.749l-10.474 39.385h25.88zm219.781-22.374c-3.574-44.67-41.06-79.926-86.629-79.947-.013 0-.026 0-.039 0-.017 0-.034-.001-.051-.001-22.03.013-43.281 8.469-59.299 23.408 15.262 15.402 26.459 34.834 31.839 56.539h114.179z" fill="url(#GradientFill_1)"/></svg>