<svg id="Layer_1" viewBox="0 0 512 512" xmlns="http://www.w3.org/2000/svg" xmlns:xlink="http://www.w3.org/1999/xlink" data-name="Layer 1"><linearGradient id="GradientFill_1" gradientUnits="userSpaceOnUse" x1="100.318" x2="415.055" y1="425.124" y2="110.387" data-name="GradientFill 1"><stop offset="0" stop-color="#002142"/><stop offset=".112" stop-color="#022a4c"/><stop offset=".303" stop-color="#0a4367"/><stop offset=".549" stop-color="#166b92"/><stop offset=".838" stop-color="#27a3cf"/><stop offset="1" stop-color="#32c5f4"/></linearGradient><path d="m127.034 215.396c0 3.866-3.134 7-7 7h-32.443c-3.866 0-7-3.134-7-7s3.134-7 7-7h32.443c3.866 0 7 3.134 7 7zm229.319 115.528v69.844c0 21.322-17.347 38.668-38.669 38.668s-38.669-17.347-38.669-38.668v-7.101l-129.352-63.455 16.637 62.088c2.581 9.629 1.241 19.714-3.773 28.397-5.013 8.683-13.077 14.886-22.707 17.466-3.202.858-6.456 1.283-9.69 1.283-6.493 0-12.912-1.709-18.708-5.056-8.683-5.013-14.886-13.077-17.466-22.707l-22.425-83.693c-10.519-3.837-18.548-12.885-20.96-24.003h-14.201c-14.575 0-26.433-11.858-26.433-26.433v-42.727c0-14.575 11.858-26.433 26.433-26.433h14.201c3.22-14.838 16.447-25.989 32.235-25.989h66.376l129.833-63.69v-7.101c0-21.322 17.347-38.669 38.669-38.669s38.669 17.347 38.669 38.669v69.844c38.123 3.543 68.071 35.7 68.071 74.734s-29.948 71.19-68.071 74.733zm-306.536-108.529h-13.446c-6.855 0-12.433 5.577-12.433 12.433v42.727c0 6.856 5.577 12.433 12.433 12.433h13.446zm32.99 93.582h61.002v-119.571h-61.002c-10.471 0-18.99 8.519-18.99 18.99v81.592c0 10.471 8.519 18.99 18.99 18.99zm52.301 14h-48.55l20.922 78.084c1.612 6.017 5.499 11.062 10.943 14.206 5.445 3.144 11.757 3.986 17.774 2.375 6.017-1.612 11.062-5.499 14.206-10.943 3.144-5.445 3.987-11.757 2.375-17.774l-17.67-65.946zm207.246-218.363c0-13.603-11.066-24.669-24.669-24.669s-24.669 11.066-24.669 24.669v289.154c0 13.603 11.066 24.668 24.669 24.668s24.669-11.066 24.669-24.668zm64.777 230.651c-1.933-3.347-6.215-4.494-9.562-2.562-3.348 1.933-4.495 6.214-2.562 9.562l22.077 38.237c1.296 2.246 3.649 3.501 6.068 3.501 1.188 0 2.392-.303 3.494-.939 3.348-1.933 4.495-6.214 2.562-9.562zm-287.097-109.431h-32.443c-3.866 0-7 3.134-7 7s3.134 7 7 7h32.443c3.866 0 7-3.134 7-7s-3.134-7-7-7zm306.612-110.516c-3.348-1.934-7.629-.787-9.562 2.562l-22.077 38.237c-1.933 3.348-.786 7.629 2.562 9.562 1.103.637 2.306.939 3.494.939 2.419 0 4.772-1.255 6.068-3.501l22.077-38.237c1.933-3.348.786-7.629-2.562-9.562zm54.02 201.603-38.237-22.076c-3.348-1.934-7.629-.786-9.562 2.562s-.786 7.629 2.562 9.562l38.237 22.076c1.103.637 2.306.939 3.494.939 2.419 0 4.772-1.255 6.068-3.501 1.933-3.348.786-7.629-2.562-9.562zm-41.731-112.444c1.188 0 2.392-.303 3.494-.939l38.237-22.077c3.348-1.933 4.495-6.214 2.562-9.562s-6.215-4.493-9.562-2.562l-38.237 22.077c-3.348 1.933-4.495 6.214-2.562 9.562 1.296 2.246 3.649 3.501 6.068 3.501zm58.003 37.714h-44.153c-3.866 0-7 3.134-7 7s3.134 7 7 7h44.153c3.866 0 7-3.134 7-7s-3.134-7-7-7z" fill="url(#GradientFill_1)"/></svg>