<svg id="Layer_1" viewBox="0 0 512 512" xmlns="http://www.w3.org/2000/svg" xmlns:xlink="http://www.w3.org/1999/xlink" data-name="Layer 1"><linearGradient id="GradientFill_1" gradientUnits="userSpaceOnUse" x1="47.619" x2="449.087" y1="438.344" y2="36.876" data-name="GradientFill 1"><stop offset="0" stop-color="#002142"/><stop offset=".112" stop-color="#022a4c"/><stop offset=".303" stop-color="#0a4367"/><stop offset=".549" stop-color="#166b92"/><stop offset=".838" stop-color="#27a3cf"/><stop offset="1" stop-color="#32c5f4"/></linearGradient><path d="m294.671 243.786c6.634 13.958 18.469 21.335 34.225 21.335h99.003c15.639 0 27.352-7.272 33.871-21.03 15.119-31.903-1.651-93.576-26.409-128.746 3.53-3.921 5.66-10.12 5.66-17.382 0-6.559-1.793-15.063-6.827-19.261-.144-.12-.296-.222-.444-.334 10.878-17.288 16.397-38.905 8.21-48.552-3.287-3.872-11.155-8.884-26.926 1.071l-9.028 5.699c-1.562.986-2.479 1.393-2.936 1.557-.187-.107-.402-.236-.583-.344l-13.039-7.749c-4.122-2.448-7.648-3.521-11.052-3.373-3.398-.15-6.931.924-11.053 3.373l-13.038 7.749c-.18.108-.396.237-.583.344-.456-.164-1.373-.57-2.935-1.557l-9.028-5.699c-15.786-9.964-23.654-4.939-26.939-1.056-8.213 9.707-2.639 31.38 8.314 48.689-.454.342-.898.709-1.321 1.127-3.783 3.739-6.041 10.586-6.041 18.316 0 6.679 1.757 12.416 4.724 16.332-24.676 34.834-41.238 97.065-25.826 129.491zm36.335-153.045c30.423 6.727 61.498 6.707 94.8-.059.574 1.454 1.216 3.959 1.216 7.281 0 4.524-1.275 7.237-1.983 7.992-28.658 6.869-60.062 6.857-93.362-.033-.701-.833-1.904-3.551-1.904-7.958 0-3.373.646-5.843 1.234-7.222zm47.391 116.212c5.594 0 10.5-3.265 10.5-6.986 0-3.878-1.16-5.083-11.809-7.11-8.674-1.651-23.191-4.414-23.191-20.863 0-9.489 7.392-17.522 17.5-20.109v-4.465c0-3.866 3.134-7 7-7s7 3.134 7 7v4.465c10.108 2.587 17.5 10.62 17.5 20.109 0 .726-.043 1.458-.129 2.177-.458 3.838-3.939 6.575-7.781 6.12-3.839-.458-6.579-3.942-6.12-7.781.021-.17.031-.344.031-.516 0-3.722-4.907-6.986-10.5-6.986s-10.5 3.265-10.5 6.986c0 3.878 1.16 5.083 11.809 7.11 8.674 1.651 23.191 4.414 23.191 20.863 0 9.489-7.392 17.522-17.5 20.109v4.465c0 3.866-3.134 7-7 7s-7-3.134-7-7v-4.465c-10.108-2.587-17.5-10.62-17.5-20.109 0-.723.043-1.455.129-2.174.457-3.839 3.938-6.581 7.778-6.123 3.839.457 6.58 3.939 6.123 7.778-.021.173-.031.347-.031.519 0 3.722 4.907 6.986 10.5 6.986zm-321.336-42.052 15.527 3.531c1.433 4.383 3.204 8.655 5.294 12.771l-8.485 13.481c-4.772 7.581-4.398 15.628.974 21.001l12.643 12.643c5.373 5.372 13.42 5.746 21.001.975l13.487-8.489c4.116 2.091 8.386 3.862 12.764 5.293l3.532 15.533c1.987 8.735 7.941 14.161 15.539 14.161h17.879c7.598 0 13.553-5.426 15.539-14.161l3.532-15.527c4.383-1.433 8.655-3.204 12.771-5.295l13.48 8.485c7.581 4.772 15.628 4.399 21.001-.974l12.643-12.643c5.372-5.373 5.746-13.419.974-21.001l-8.489-13.486c2.091-4.115 3.861-8.385 5.293-12.764l15.533-3.532c8.734-1.987 14.16-7.941 14.16-15.54v-17.879c0-7.598-5.426-13.552-14.16-15.539l-15.528-3.531c-1.432-4.383-3.204-8.655-5.294-12.771l8.485-13.481c4.772-7.581 4.398-15.628-.974-21l-12.643-12.643c-5.373-5.373-13.42-5.746-21.001-.975l-13.487 8.489c-4.115-2.091-8.385-3.862-12.763-5.293l-3.533-15.533c-1.986-8.734-7.94-14.161-15.539-14.161h-17.879c-7.598 0-13.552 5.426-15.539 14.161l-3.533 15.533c-4.379 1.432-8.648 3.202-12.764 5.293l-13.487-8.489c-7.581-4.771-15.627-4.398-21.001.975l-12.642 12.643c-5.374 5.373-5.747 13.42-.975 21l8.487 13.485c-2.091 4.115-3.862 8.386-5.294 12.766l-15.53 3.532c-8.734 1.987-14.161 7.941-14.161 15.539v17.879c0 7.598 5.426 13.553 14.161 15.54zm61.886-24.479c0-21.687 17.644-39.33 39.33-39.33s39.33 17.643 39.33 39.33-17.644 39.329-39.33 39.329-39.33-17.643-39.33-39.329zm379.975 157.616c-5.006-8.671-13.12-14.882-22.847-17.488-9.728-2.606-19.858-1.284-28.53 3.721l-117.297 67.722c.871-1.834 1.588-3.777 2.136-5.821 2.333-8.707 1.122-17.826-3.411-25.677s-11.825-13.46-20.532-15.792l-113.608-30.441c-9.998-3.241-22.254-1.978-31.289 3.238l-79.604 45.96-6.919-11.984c-2.932-5.079-7.681-8.715-13.373-10.24-5.691-1.526-11.622-.75-16.7 2.182l-26.015 15.019c-5.078 2.932-8.714 7.681-10.24 13.372-1.525 5.692-.75 11.623 2.182 16.701l73.804 127.833c4.073 7.055 11.488 11.003 19.103 11.003 3.732 0 7.512-.949 10.97-2.945l26.015-15.02c10.513-6.069 14.127-19.56 8.058-30.073l-6.919-11.984 11.834-6.832c5.357-3.094 7.589-3.025 15.48-1.274l113.303 30.359c3.977 1.066 8.015 1.593 12.032 1.593 8.062 0 16.038-2.124 23.236-6.28l165.364-95.473c8.671-5.006 14.882-13.121 17.488-22.848 2.605-9.727 1.284-19.859-3.723-28.53zm-9.8 24.907c-1.638 6.115-5.532 11.21-10.965 14.347l-165.363 95.473c-7.547 4.357-16.3 5.525-24.646 3.289l-113.45-30.398c-.097-.026-.194-.05-.292-.072-9.363-2.082-15.763-2.935-25.666 2.784l-11.834 6.832-45.967-79.617 79.605-45.96c5.613-3.241 13.874-4.064 20.09-2.006.129.043.259.082.39.117l113.793 30.491c5.095 1.365 9.367 4.657 12.03 9.27s3.378 9.959 2.013 15.055c-2.784 10.388-13.274 16.326-23.893 13.519l-85.568-22.656c-3.736-.991-7.568 1.238-8.558 4.975s1.238 7.569 4.975 8.558l85.539 22.648s.01.004.015.005c.013.003.028.007.042.011l13.59 3.598c9.829 2.603 15.127.793 28.243-6.779l121.299-70.032c5.432-3.136 11.791-3.96 17.906-2.323 6.115 1.639 11.21 5.533 14.347 10.966s3.962 11.792 2.324 17.907z" fill="url(#GradientFill_1)"/></svg>